<?xml version="1.0" encoding="UTF-8" standalone="no"?><!DOCTYPE svg PUBLIC "-//W3C//DTD SVG 1.1//EN" "http://www.w3.org/Graphics/SVG/1.1/DTD/svg11.dtd"><svg width="100%" height="100%" viewBox="0 0 438 549" version="1.1" xmlns="http://www.w3.org/2000/svg" xmlns:xlink="http://www.w3.org/1999/xlink" xml:space="preserve" xmlns:serif="http://www.serif.com/" style="fill-rule:evenodd;clip-rule:evenodd;stroke-linejoin:round;stroke-miterlimit:2;"><g><path d="M188.132,109.092l-0,-49.283c-0,-8.112 -3.483,-14.696 -7.771,-14.696c-4.292,0 -7.771,6.584 -7.771,14.696l0,9.383c12.425,22.488 14.267,45.842 2.692,63.575c-0.813,1.246 -1.767,2.371 -2.692,3.526l0,88.72l15.542,0l-0,-69.908c-0.054,-0.121 -0.117,-0.242 -0.171,-0.367c-5.546,-14.15 -5.387,-29.783 0.171,-45.646Z" style="fill:#fff;fill-rule:nonzero;"/><path d="M335.865,171.405c-50.937,19.954 -102.121,15.075 -124.175,-9.567l125.708,-51.112l62.517,8.791c0.392,0.055 0.779,0.084 1.167,0.084c4.092,-0 7.654,-3.013 8.242,-7.179c0.641,-4.559 -2.534,-8.763 -7.088,-9.409l-34.083,-4.791l52.187,-21.225c2.771,33.716 -31.987,73.833 -84.475,94.408Zm-119.887,-79.162c15.4,-20.93 39.971,-38.763 69.187,-50.209l0.004,-0.004c21.396,-8.383 42.834,-12.392 62.146,-12.392c31.959,0 58.067,10.984 68.471,31.221l-124.842,50.767l10.004,-39.663c1.13,-4.462 -1.574,-8.991 -6.037,-10.121c-4.467,-1.12 -8.992,1.58 -10.117,6.05l-13.004,51.521l-68.754,27.954c-5.792,-16.329 -1.246,-35.837 12.942,-55.124Zm217.1,-33.563c-17.35,-44.225 -86.434,-58.654 -153.992,-32.167c-32.112,12.584 -59.292,32.417 -76.529,55.854c-6.504,8.834 -11.309,17.817 -14.425,26.725c-5.558,15.863 -5.717,31.496 -0.171,45.646c0.054,0.125 0.117,0.246 0.171,0.367c11.596,28.987 45.508,45.079 86.608,45.079c21.188,-0.008 44.284,-4.283 67.209,-13.258c67.57,-26.492 108.445,-84.021 91.129,-128.246Z" style="fill:#fff;fill-rule:nonzero;"/><path d="M276.086,241.68c33.033,-0 59.904,25.242 59.904,56.267l0,49.345l-287.508,0l-0,-49.345c-0,-31.025 26.862,-56.267 59.891,-56.267l167.713,-0Zm59.904,171.342l-287.508,-0l-0,-49.063l287.508,0l0,49.063Zm0,62.587c0,31.034 -26.871,56.275 -59.904,56.275l-167.713,0c-33.029,0 -59.891,-25.241 -59.891,-56.275l-0,-45.921l287.508,0l0,45.921Zm-227.617,-250.596c-42.216,0 -76.558,32.717 -76.558,72.934l0,177.662c0,40.221 34.342,72.942 76.558,72.942l167.713,-0c42.221,-0 76.571,-32.721 76.571,-72.942l-0,-177.662c-0,-40.217 -34.35,-72.934 -76.571,-72.934l-167.713,0Z" style="fill:#fff;fill-rule:nonzero;"/><path d="M166.078,109.301l-22.671,-15.525c-0.058,-0.833 -0.204,-1.667 -0.533,-2.479l-14.305,-35.979c-1.704,-4.275 -6.55,-6.355 -10.825,-4.663c-4.279,1.7 -6.362,6.55 -4.662,10.825l6.3,15.838l-82.834,-56.726c6.109,-2.57 13.421,-3.929 21.701,-3.929c0.4,0 0.804,0.009 1.208,0.013c18.925,0.291 39.929,7.362 59.133,19.908l0.004,0.004c30.709,20.046 49.379,50.084 47.484,72.713Zm-42.513,30.154c-18.929,-0.292 -39.933,-7.362 -59.146,-19.913c-37.837,-24.708 -57.4,-64.575 -42.721,-87.058c0.284,-0.433 0.642,-0.808 0.942,-1.221l137.375,94.084c-7.15,9.341 -19.954,14.387 -36.45,14.108Zm49.025,-70.263c-9.354,-16.941 -24.7,-33.383 -44.883,-46.566l-0,0.004c-21.813,-14.246 -45.958,-22.275 -67.992,-22.617c-18.029,-0.304 -33.071,4.604 -43.662,13.892c-0.313,0.258 -0.609,0.542 -0.888,0.862c-2.787,2.571 -5.325,5.392 -7.421,8.6c-20.295,31.088 0.592,79.463 47.567,110.134c21.808,14.25 45.954,22.279 67.992,22.621c0.496,0.008 0.987,0.008 1.475,0.008c20.866,-0 37.571,-7.029 47.812,-19.837c0.925,-1.155 1.879,-2.28 2.692,-3.526c11.575,-17.733 9.733,-41.087 -2.692,-63.575Z" style="fill:#fff;fill-rule:nonzero;"/></g></svg>