<?xml version="1.0" encoding="UTF-8" standalone="no"?><!DOCTYPE svg PUBLIC "-//W3C//DTD SVG 1.1//EN" "http://www.w3.org/Graphics/SVG/1.1/DTD/svg11.dtd"><svg width="100%" height="100%" viewBox="0 0 132 166" version="1.1" xmlns="http://www.w3.org/2000/svg" xmlns:xlink="http://www.w3.org/1999/xlink" xml:space="preserve" xmlns:serif="http://www.serif.com/" style="fill-rule:evenodd;clip-rule:evenodd;stroke-linejoin:round;stroke-miterlimit:2;"><g id="Vetor-Agro" serif:id="Vetor Agro"><path d="M56.751,32.908l-0,-14.866c-0,-2.448 -1.051,-4.433 -2.345,-4.433c-1.294,-0 -2.344,1.985 -2.344,4.433l0,2.83c3.748,6.784 4.304,13.828 0.812,19.178c-0.245,0.376 -0.533,0.715 -0.812,1.063l0,26.763l4.689,-0l-0,-21.088c-0.017,-0.037 -0.036,-0.073 -0.052,-0.111c-1.673,-4.268 -1.625,-8.984 0.052,-13.769Z" style="fill:#fff;fill-rule:nonzero;"/><path d="M101.315,51.705c-15.366,6.019 -30.805,4.547 -37.458,-2.886l37.92,-15.418l18.859,2.652c0.118,0.016 0.235,0.025 0.352,0.025c1.234,-0 2.308,-0.909 2.486,-2.166c0.193,-1.375 -0.765,-2.643 -2.138,-2.838l-10.282,-1.445l15.743,-6.403c0.836,10.171 -9.649,22.272 -25.482,28.479Zm-36.165,-23.88c4.646,-6.313 12.058,-11.693 20.871,-15.145l0.001,-0.002c6.454,-2.528 12.921,-3.738 18.747,-3.738c9.64,0 17.516,3.314 20.654,9.418l-37.659,15.314l3.018,-11.964c0.341,-1.346 -0.475,-2.712 -1.821,-3.053c-1.348,-0.338 -2.713,0.476 -3.052,1.825l-3.923,15.541l-20.74,8.433c-1.747,-4.926 -0.375,-10.811 3.904,-16.629Zm65.489,-10.124c-5.233,-13.341 -26.073,-17.693 -46.452,-9.703c-9.687,3.796 -17.885,9.778 -23.085,16.848c-1.962,2.665 -3.411,5.375 -4.351,8.062c-1.677,4.785 -1.725,9.501 -0.052,13.769c0.016,0.038 0.035,0.074 0.052,0.111c3.497,8.744 13.727,13.598 26.125,13.598c6.391,-0.002 13.358,-1.292 20.274,-3.999c20.383,-7.992 32.713,-25.345 27.489,-38.686Z" style="fill:#fff;fill-rule:nonzero;"/><path d="M83.282,72.904c9.965,-0 18.07,7.614 18.07,16.973l0,14.885l-86.727,-0l-0,-14.885c-0,-9.359 8.103,-16.973 18.066,-16.973l50.591,-0Zm18.07,51.685l-86.727,0l-0,-14.8l86.727,0l0,14.8Zm0,18.88c0,9.361 -8.105,16.975 -18.07,16.975l-50.591,0c-9.963,0 -18.066,-7.614 -18.066,-16.975l-0,-13.852l86.727,-0l0,13.852Zm-68.661,-75.593c-12.735,-0 -23.094,9.869 -23.094,22.001l0,53.592c0,12.133 10.359,22.003 23.094,22.003l50.591,0c12.736,0 23.098,-9.87 23.098,-22.003l0,-53.592c0,-12.132 -10.362,-22.001 -23.098,-22.001l-50.591,-0Z" style="fill:#fff;fill-rule:nonzero;"/><path d="M50.098,32.971l-6.839,-4.683c-0.017,-0.252 -0.062,-0.503 -0.161,-0.748l-4.315,-10.853c-0.514,-1.29 -1.975,-1.917 -3.265,-1.407c-1.291,0.513 -1.919,1.976 -1.407,3.266l1.901,4.777l-24.987,-17.111c1.843,-0.776 4.048,-1.185 6.546,-1.185c0.121,-0 0.242,0.002 0.364,0.003c5.709,0.088 12.045,2.221 17.838,6.006l0.001,0.001c9.264,6.047 14.896,15.108 14.324,21.934Zm-12.824,9.096c-5.71,-0.088 -12.046,-2.221 -17.842,-6.007c-11.414,-7.453 -17.315,-19.479 -12.887,-26.261c0.086,-0.131 0.194,-0.244 0.284,-0.368l41.44,28.38c-2.157,2.818 -6.019,4.34 -10.995,4.256Zm14.788,-21.195c-2.821,-5.11 -7.451,-10.07 -13.539,-14.047l0,0.001c-6.58,-4.297 -13.863,-6.719 -20.51,-6.822c-5.438,-0.092 -9.976,1.389 -13.171,4.19c-0.094,0.078 -0.183,0.164 -0.267,0.261c-0.841,0.775 -1.607,1.626 -2.239,2.594c-6.122,9.378 0.179,23.97 14.349,33.222c6.578,4.298 13.862,6.721 20.51,6.824c0.149,0.002 0.297,0.002 0.445,0.002c6.294,0 11.333,-2.12 14.422,-5.984c0.279,-0.348 0.567,-0.687 0.812,-1.063c3.492,-5.35 2.936,-12.394 -0.812,-19.178Z" style="fill:#fff;fill-rule:nonzero;"/></g></svg>