<?xml version="1.0" encoding="UTF-8" standalone="no"?><!DOCTYPE svg PUBLIC "-//W3C//DTD SVG 1.1//EN" "http://www.w3.org/Graphics/SVG/1.1/DTD/svg11.dtd"><svg width="100%" height="100%" viewBox="0 0 4000 2250" version="1.1" xmlns="http://www.w3.org/2000/svg" xmlns:xlink="http://www.w3.org/1999/xlink" xml:space="preserve" xmlns:serif="http://www.serif.com/" style="fill-rule:evenodd;clip-rule:evenodd;stroke-linejoin:round;stroke-miterlimit:2;"><rect x="0" y="0" width="4000" height="2250" style="fill:#e4142c;"/><g><g><g><path d="M2299.13,2076.67l-0.281,0c-18.251,0 -33.042,-14.791 -33.042,-33.042l-0,-919.143c-0,-18.251 14.791,-33.042 33.042,-33.042l0.281,-0c18.252,-0 33.043,14.791 33.043,33.042l-0,919.143c-0,18.251 -14.803,33.042 -33.043,33.042Z" style="fill:#ebebeb;fill-rule:nonzero;"/></g><g><path d="M2468.8,1697.45l-339.63,0c-134.633,0 -243.765,-109.143 -243.765,-243.764l64.959,-396.765c27.963,-170.795 175.545,-296.184 348.615,-296.184c173.07,-0 320.652,125.389 348.615,296.184l64.959,396.765c0.011,134.632 -109.121,243.764 -243.753,243.764Z" style="fill:#ebebeb;fill-rule:nonzero;"/></g><g opacity="0.1"><path d="M2298.47,762.032c-173.07,0 -320.652,125.389 -348.615,296.184l-34.732,212.13l250.697,-0c134.632,-0 243.764,-109.132 243.764,-243.765l-42.191,-257.722c-22.368,-4.434 -45.394,-6.827 -68.923,-6.827Z" style="fill:#ebebeb;fill-rule:nonzero;"/></g><g><path d="M2648.41,1057.3c-18.133,-110.798 -86.646,-202.429 -179.767,-253.171c24.339,38.813 41.44,82.869 49.229,130.456l64.958,396.765c0,134.633 -109.144,243.765 -243.764,243.765l-339.63,-0c-31.811,-0 -62.179,-6.158 -90.037,-17.243c38.989,82.706 123.079,139.958 220.575,139.958l339.631,-0c134.632,-0 243.764,-109.132 243.764,-243.765l-64.959,-396.765Z" style="fill:#ebebeb;fill-rule:nonzero;"/></g><g><g><path d="M2239.78,988.143c-45.288,0 -82.131,-36.854 -82.131,-82.142c0,-5.818 4.715,-10.533 10.533,-10.533c5.818,-0 10.533,4.715 10.533,10.533c0,33.676 27.401,61.076 61.065,61.076c33.675,0 61.076,-27.4 61.076,-61.076c-0,-5.818 4.715,-10.533 10.533,-10.533c5.818,-0 10.533,4.715 10.533,10.533c-0,45.3 -36.854,82.142 -82.142,82.142Z" style="fill:#ebebeb;fill-rule:nonzero;"/></g><g><path d="M2382.99,988.143c-45.288,0 -82.13,-36.854 -82.13,-82.142c-0,-5.818 4.715,-10.533 10.533,-10.533c5.818,-0 10.533,4.715 10.533,10.533c-0,33.676 27.4,61.076 61.064,61.076c33.676,0 61.064,-27.4 61.064,-61.076c0,-5.818 4.716,-10.533 10.534,-10.533c5.818,-0 10.533,4.715 10.533,10.533c-0,45.3 -36.843,82.142 -82.131,82.142Z" style="fill:#ebebeb;fill-rule:nonzero;"/></g></g><g><g><path d="M2084.18,1153.54c-45.288,0 -82.143,-36.854 -82.143,-82.142c0,-5.818 4.716,-10.533 10.534,-10.533c5.818,-0 10.533,4.715 10.533,10.533c-0,33.676 27.4,61.076 61.076,61.076c33.675,0 61.064,-27.4 61.064,-61.076c0,-5.818 4.715,-10.533 10.533,-10.533c5.818,-0 10.533,4.715 10.533,10.533c0.012,45.3 -36.842,82.142 -82.13,82.142Z" style="fill:#ebebeb;fill-rule:nonzero;"/></g><g><path d="M2227.38,1153.54c-45.288,0 -82.142,-36.854 -82.142,-82.142c0,-5.818 4.715,-10.533 10.533,-10.533c5.818,-0 10.533,4.715 10.533,10.533c0,33.676 27.401,61.076 61.076,61.076c33.676,0 61.065,-27.4 61.065,-61.076c-0,-5.818 4.715,-10.533 10.533,-10.533c5.818,-0 10.533,4.715 10.533,10.533c0.012,45.3 -36.831,82.142 -82.131,82.142Z" style="fill:#ebebeb;fill-rule:nonzero;"/></g><g><path d="M2370.59,1153.54c-45.288,0 -82.131,-36.854 -82.131,-82.142c0,-5.818 4.716,-10.533 10.534,-10.533c5.817,-0 10.533,4.715 10.533,10.533c-0,33.676 27.4,61.076 61.064,61.076c33.687,0 61.076,-27.4 61.076,-61.076c0,-5.818 4.715,-10.533 10.533,-10.533c5.818,-0 10.533,4.715 10.533,10.533c0,45.3 -36.842,82.142 -82.142,82.142Z" style="fill:#ebebeb;fill-rule:nonzero;"/></g><g><path d="M2513.8,1153.54c-45.288,0 -82.131,-36.854 -82.131,-82.142c0,-5.818 4.715,-10.533 10.533,-10.533c5.818,-0 10.533,4.715 10.533,10.533c0,33.676 27.401,61.076 61.065,61.076c33.664,0 61.064,-27.4 61.064,-61.076c-0,-5.818 4.715,-10.533 10.533,-10.533c5.83,-0 10.533,4.715 10.533,10.533c0.012,45.3 -36.842,82.142 -82.13,82.142Z" style="fill:#ebebeb;fill-rule:nonzero;"/></g></g><g><g><path d="M2063.76,1366.36c-49.042,0 -88.946,-39.904 -88.946,-88.945c0,-5.818 4.715,-10.533 10.533,-10.533c5.818,-0 10.533,4.715 10.533,10.533c0,37.429 30.45,67.879 67.88,67.879c37.429,-0 67.879,-30.45 67.879,-67.879c-0,-5.818 4.715,-10.533 10.533,-10.533c5.818,-0 10.533,4.715 10.533,10.533c0,49.041 -39.892,88.945 -88.945,88.945Z" style="fill:#ebebeb;fill-rule:nonzero;"/></g><g><path d="M2220.58,1366.36c-49.041,0 -88.945,-39.904 -88.945,-88.945c-0,-5.818 4.715,-10.533 10.533,-10.533c5.818,-0 10.533,4.715 10.533,10.533c0,37.429 30.45,67.879 67.868,67.879c37.429,-0 67.879,-30.45 67.879,-67.879c-0,-5.818 4.715,-10.533 10.533,-10.533c5.818,-0 10.533,4.715 10.533,10.533c0.012,49.041 -39.892,88.945 -88.934,88.945Z" style="fill:#ebebeb;fill-rule:nonzero;"/></g><g><path d="M2377.39,1366.36c-49.041,0 -88.945,-39.904 -88.945,-88.945c-0,-5.818 4.715,-10.533 10.533,-10.533c5.818,-0 10.533,4.715 10.533,10.533c0,37.429 30.45,67.879 67.879,67.879c37.429,-0 67.879,-30.45 67.879,-67.879c0,-5.818 4.716,-10.533 10.534,-10.533c5.817,-0 10.533,4.715 10.533,10.533c0.011,49.041 -39.904,88.945 -88.946,88.945Z" style="fill:#ebebeb;fill-rule:nonzero;"/></g><g><path d="M2534.22,1366.36c-49.042,0 -88.946,-39.904 -88.946,-88.945c0,-5.818 4.716,-10.533 10.534,-10.533c5.817,-0 10.533,4.715 10.533,10.533c-0,37.429 30.45,67.879 67.879,67.879c37.429,-0 67.879,-30.45 67.879,-67.879c0,-5.818 4.715,-10.533 10.533,-10.533c5.818,-0 10.533,4.715 10.533,10.533c0,49.041 -39.904,88.945 -88.945,88.945Z" style="fill:#ebebeb;fill-rule:nonzero;"/></g></g><g><g><path d="M2044.66,1594.05c-52.549,0 -95.315,-42.754 -95.315,-95.303c0,-5.817 4.715,-10.533 10.533,-10.533c5.818,0 10.534,4.716 10.534,10.533c-0,40.937 33.3,74.237 74.248,74.237c40.936,-0 74.236,-33.312 74.236,-74.237c0,-5.817 4.716,-10.533 10.534,-10.533c5.817,0 10.533,4.716 10.533,10.533c-0,52.549 -42.755,95.303 -95.303,95.303Z" style="fill:#ebebeb;fill-rule:nonzero;"/></g><g><path d="M2214.21,1594.05c-52.548,0 -95.315,-42.754 -95.315,-95.303c0,-5.817 4.716,-10.533 10.534,-10.533c5.817,0 10.533,4.716 10.533,10.533c-0,40.937 33.312,74.237 74.248,74.237c40.936,-0 74.237,-33.312 74.237,-74.237c-0,-5.817 4.715,-10.533 10.533,-10.533c5.818,0 10.533,4.716 10.533,10.533c0.012,52.549 -42.743,95.303 -95.303,95.303Z" style="fill:#ebebeb;fill-rule:nonzero;"/></g><g><path d="M2383.76,1594.05c-52.56,0 -95.314,-42.754 -95.314,-95.303c-0,-5.817 4.715,-10.533 10.533,-10.533c5.818,0 10.533,4.716 10.533,10.533c0,40.937 33.312,74.237 74.248,74.237c40.937,-0 74.249,-33.312 74.249,-74.237c-0,-5.817 4.715,-10.533 10.533,-10.533c5.818,0 10.533,4.716 10.533,10.533c0,52.549 -42.754,95.303 -95.315,95.303Z" style="fill:#ebebeb;fill-rule:nonzero;"/></g><g><path d="M2553.32,1594.05c-52.549,0 -95.303,-42.754 -95.303,-95.303c-0,-5.817 4.715,-10.533 10.533,-10.533c5.818,0 10.533,4.716 10.533,10.533c0,40.937 33.3,74.237 74.237,74.237c40.936,-0 74.248,-33.312 74.248,-74.237c-0,-5.817 4.715,-10.533 10.533,-10.533c5.818,0 10.533,4.716 10.533,10.533c0,52.549 -42.754,95.303 -95.314,95.303Z" style="fill:#ebebeb;fill-rule:nonzero;"/></g></g><g><path d="M2183.33,1210.21c0,4.199 -3.401,7.601 -7.601,7.601c-4.199,-0 -7.6,-3.402 -7.6,-7.601c-0,-4.199 3.401,-7.601 7.6,-7.601c4.2,0 7.601,3.414 7.601,7.601Z" style="fill:#ebebeb;fill-rule:nonzero;"/></g><g><path d="M2052.26,970.01c-0,4.199 -3.402,7.6 -7.601,7.6c-4.199,0 -7.601,-3.401 -7.601,-7.6c0,-4.2 3.402,-7.601 7.601,-7.601c4.199,-0 7.601,3.401 7.601,7.601Z" style="fill:#ebebeb;fill-rule:nonzero;"/></g><g><path d="M2355.75,1024.51c0,4.199 -3.401,7.601 -7.601,7.601c-4.199,-0 -7.6,-3.402 -7.6,-7.601c-0,-4.199 3.401,-7.601 7.6,-7.601c4.2,0 7.601,3.402 7.601,7.601Z" style="fill:#ebebeb;fill-rule:nonzero;"/></g><g><path d="M2254.97,817.114c0,4.199 -3.401,7.601 -7.6,7.601c-4.2,0 -7.601,-3.402 -7.601,-7.601c-0,-4.199 3.401,-7.601 7.601,-7.601c4.199,0 7.6,3.414 7.6,7.601Z" style="fill:#ebebeb;fill-rule:nonzero;"/></g><g><path d="M2495.34,842.661c0,4.2 -3.401,7.601 -7.601,7.601c-4.199,0 -7.6,-3.401 -7.6,-7.601c-0,-4.199 3.401,-7.6 7.6,-7.6c4.2,-0 7.601,3.401 7.601,7.6Z" style="fill:#ebebeb;fill-rule:nonzero;"/></g><g><path d="M2568.52,1008.59c0,4.199 -3.401,7.601 -7.601,7.601c-4.199,-0 -7.6,-3.402 -7.6,-7.601c-0,-4.199 3.401,-7.601 7.6,-7.601c4.2,0.012 7.601,3.414 7.601,7.601Z" style="fill:#ebebeb;fill-rule:nonzero;"/></g><g><path d="M2442.2,1229.1c0,4.2 -3.401,7.601 -7.601,7.601c-4.199,0 -7.6,-3.401 -7.6,-7.601c-0,-4.199 3.401,-7.6 7.6,-7.6c4.2,-0 7.601,3.401 7.601,7.6Z" style="fill:#ebebeb;fill-rule:nonzero;"/></g><g><path d="M2645.7,1202.62c-0,4.199 -3.402,7.601 -7.601,7.601c-4.199,-0 -7.601,-3.402 -7.601,-7.601c0,-4.199 3.402,-7.601 7.601,-7.601c4.199,0 7.601,3.402 7.601,7.601Z" style="fill:#ebebeb;fill-rule:nonzero;"/></g><g><path d="M2398.97,1440.48c-0,4.2 -3.402,7.601 -7.601,7.601c-4.199,0 -7.601,-3.401 -7.601,-7.601c0,-4.199 3.402,-7.6 7.601,-7.6c4.199,-0 7.601,3.413 7.601,7.6Z" style="fill:#ebebeb;fill-rule:nonzero;"/></g><g><path d="M2462.19,1635.97c0,4.199 -3.401,7.601 -7.6,7.601c-4.2,-0 -7.601,-3.402 -7.601,-7.601c-0,-4.199 3.401,-7.601 7.601,-7.601c4.199,0 7.6,3.402 7.6,7.601Z" style="fill:#ebebeb;fill-rule:nonzero;"/></g><g><path d="M2186.69,1414.47c0,4.199 -3.401,7.601 -7.6,7.601c-4.199,0 -7.601,-3.402 -7.601,-7.601c-0,-4.199 3.402,-7.601 7.601,-7.601c4.199,0.012 7.6,3.414 7.6,7.601Z" style="fill:#ebebeb;fill-rule:nonzero;"/></g><g><path d="M2044.66,1495.8c-0,4.199 -3.402,7.601 -7.601,7.601c-4.199,0 -7.601,-3.402 -7.601,-7.601c0,-4.199 3.402,-7.601 7.601,-7.601c4.199,0 7.601,3.402 7.601,7.601Z" style="fill:#ebebeb;fill-rule:nonzero;"/></g></g><g><g><path d="M1885.04,2076.67l-0.407,0c-26.398,0 -47.792,-21.393 -47.792,-47.792l0,-1329.44c0,-26.398 21.394,-47.792 47.792,-47.792l0.407,0c26.399,0 47.792,21.394 47.792,47.792l0,1329.44c0,26.399 -21.41,47.792 -47.792,47.792Z" style="fill:#fff;fill-rule:nonzero;"/></g><g><path d="M2130.45,1528.18l-491.237,0c-194.731,0 -352.578,-157.864 -352.578,-352.577l93.955,-573.876c40.446,-247.036 253.906,-428.397 504.233,-428.397c250.326,-0 463.787,181.361 504.232,428.397l93.956,573.876c0.017,194.73 -157.831,352.577 -352.561,352.577Z" style="fill:#fff;fill-rule:nonzero;"/></g><g opacity="0.1"><path d="M1884.08,175.193c-250.326,0 -463.786,181.362 -504.232,428.397l-50.235,306.821l362.604,0c194.731,0 352.578,-157.847 352.578,-352.577l-61.025,-372.767c-32.353,-6.413 -65.657,-9.874 -99.69,-9.874Z" style="fill:#fff;fill-rule:nonzero;"/></g><g><path d="M2390.23,602.266c-26.229,-160.256 -125.324,-292.791 -260.014,-366.184c35.204,56.139 59.94,119.862 71.205,188.691l93.955,573.876c-0,194.731 -157.864,352.578 -352.578,352.578l-491.237,-0c-46.011,-0 -89.934,-8.907 -130.227,-24.939c56.393,119.624 178.019,202.432 319.036,202.432l491.237,0c194.731,0 352.578,-157.847 352.578,-352.577l-93.955,-573.877Z" style="fill:#fff;fill-rule:nonzero;"/></g><g><g><path d="M1799.2,502.238c-65.504,-0 -118.793,-53.306 -118.793,-118.81c0,-8.415 6.82,-15.235 15.235,-15.235c8.415,-0 15.235,6.82 15.235,15.235c0,48.708 39.632,88.34 88.323,88.34c48.708,-0 88.339,-39.632 88.339,-88.34c0,-8.415 6.82,-15.235 15.235,-15.235c8.415,-0 15.235,6.82 15.235,15.235c0,65.521 -53.305,118.81 -118.809,118.81Z" style="fill:#fff;fill-rule:nonzero;"/></g><g><path d="M2006.33,502.238c-65.504,-0 -118.793,-53.306 -118.793,-118.81c0,-8.415 6.82,-15.235 15.235,-15.235c8.415,-0 15.235,6.82 15.235,15.235c0,48.708 39.632,88.34 88.323,88.34c48.708,-0 88.323,-39.632 88.323,-88.34c-0,-8.415 6.82,-15.235 15.235,-15.235c8.415,-0 15.235,6.82 15.235,15.235c-0,65.521 -53.289,118.81 -118.793,118.81Z" style="fill:#fff;fill-rule:nonzero;"/></g></g><g><g><path d="M1574.13,741.469c-65.504,-0 -118.81,-53.306 -118.81,-118.81c0,-8.415 6.821,-15.235 15.235,-15.235c8.415,-0 15.235,6.82 15.235,15.235c0,48.708 39.632,88.34 88.34,88.34c48.708,-0 88.323,-39.632 88.323,-88.34c-0,-8.415 6.82,-15.235 15.235,-15.235c8.415,-0 15.235,6.82 15.235,15.235c0.017,65.521 -53.289,118.81 -118.793,118.81Z" style="fill:#fff;fill-rule:nonzero;"/></g><g><path d="M1781.27,741.469c-65.504,-0 -118.809,-53.306 -118.809,-118.81c-0,-8.415 6.82,-15.235 15.235,-15.235c8.415,-0 15.235,6.82 15.235,15.235c-0,48.708 39.631,88.34 88.339,88.34c48.708,-0 88.323,-39.632 88.323,-88.34c-0,-8.415 6.82,-15.235 15.235,-15.235c8.415,-0 15.235,6.82 15.235,15.235c0.017,65.521 -53.272,118.81 -118.793,118.81Z" style="fill:#fff;fill-rule:nonzero;"/></g><g><path d="M1988.4,741.469c-65.504,-0 -118.792,-53.306 -118.792,-118.81c-0,-8.415 6.82,-15.235 15.235,-15.235c8.415,-0 15.235,6.82 15.235,15.235c-0,48.708 39.631,88.34 88.322,88.34c48.725,-0 88.34,-39.632 88.34,-88.34c-0,-8.415 6.82,-15.235 15.235,-15.235c8.415,-0 15.235,6.82 15.235,15.235c0,65.521 -53.289,118.81 -118.81,118.81Z" style="fill:#fff;fill-rule:nonzero;"/></g><g><path d="M2195.53,741.469c-65.504,-0 -118.793,-53.306 -118.793,-118.81c-0,-8.415 6.82,-15.235 15.235,-15.235c8.415,-0 15.235,6.82 15.235,15.235c0,48.708 39.632,88.34 88.323,88.34c48.691,-0 88.322,-39.632 88.322,-88.34c0,-8.415 6.82,-15.235 15.235,-15.235c8.432,-0 15.235,6.82 15.235,15.235c0.017,65.521 -53.288,118.81 -118.792,118.81Z" style="fill:#fff;fill-rule:nonzero;"/></g></g><g><g><path d="M1544.6,1049.29c-70.933,0 -128.65,-57.716 -128.65,-128.649c0,-8.415 6.821,-15.235 15.235,-15.235c8.415,-0 15.235,6.82 15.235,15.235c0,54.137 44.043,98.179 98.18,98.179c54.137,0 98.18,-44.042 98.18,-98.179c-0,-8.415 6.82,-15.235 15.235,-15.235c8.415,-0 15.235,6.82 15.235,15.235c-0,70.933 -57.7,128.649 -128.65,128.649Z" style="fill:#fff;fill-rule:nonzero;"/></g><g><path d="M1771.42,1049.29c-70.933,0 -128.649,-57.716 -128.649,-128.649c-0,-8.415 6.82,-15.235 15.235,-15.235c8.415,-0 15.235,6.82 15.235,15.235c-0,54.137 44.042,98.179 98.162,98.179c54.137,0 98.18,-44.042 98.18,-98.179c-0,-8.415 6.82,-15.235 15.235,-15.235c8.415,-0 15.235,6.82 15.235,15.235c0.017,70.933 -57.7,128.649 -128.633,128.649Z" style="fill:#fff;fill-rule:nonzero;"/></g><g><path d="M1998.24,1049.29c-70.932,0 -128.649,-57.716 -128.649,-128.649c-0,-8.415 6.82,-15.235 15.235,-15.235c8.415,-0 15.235,6.82 15.235,15.235c-0,54.137 44.042,98.179 98.179,98.179c54.137,0 98.18,-44.042 98.18,-98.179c-0,-8.415 6.82,-15.235 15.235,-15.235c8.415,-0 15.235,6.82 15.235,15.235c0.017,70.933 -57.717,128.649 -128.65,128.649Z" style="fill:#fff;fill-rule:nonzero;"/></g><g><path d="M2225.07,1049.29c-70.933,0 -128.65,-57.716 -128.65,-128.649c-0,-8.415 6.82,-15.235 15.235,-15.235c8.415,-0 15.235,6.82 15.235,15.235c0,54.137 44.043,98.179 98.18,98.179c54.137,0 98.179,-44.042 98.179,-98.179c0,-8.415 6.82,-15.235 15.235,-15.235c8.415,-0 15.235,6.82 15.235,15.235c0,70.933 -57.716,128.649 -128.649,128.649Z" style="fill:#fff;fill-rule:nonzero;"/></g></g><g><g><path d="M1516.98,1378.61c-76.005,0 -137.862,-61.839 -137.862,-137.845c0,-8.415 6.82,-15.235 15.235,-15.235c8.415,0 15.235,6.82 15.235,15.235c0,59.21 48.165,107.375 107.392,107.375c59.21,0 107.375,-48.182 107.375,-107.375c-0,-8.415 6.82,-15.235 15.235,-15.235c8.415,0 15.235,6.82 15.235,15.235c0,76.006 -61.839,137.845 -137.845,137.845Z" style="fill:#fff;fill-rule:nonzero;"/></g><g><path d="M1762.21,1378.61c-76.006,0 -137.862,-61.839 -137.862,-137.845c-0,-8.415 6.82,-15.235 15.235,-15.235c8.415,0 15.235,6.82 15.235,15.235c0,59.21 48.182,107.375 107.392,107.375c59.21,0 107.375,-48.182 107.375,-107.375c-0,-8.415 6.82,-15.235 15.235,-15.235c8.415,0 15.235,6.82 15.235,15.235c0.017,76.006 -61.823,137.845 -137.845,137.845Z" style="fill:#fff;fill-rule:nonzero;"/></g><g><path d="M2007.45,1378.61c-76.023,0 -137.862,-61.839 -137.862,-137.845c-0,-8.415 6.82,-15.235 15.235,-15.235c8.415,0 15.235,6.82 15.235,15.235c-0,59.21 48.182,107.375 107.392,107.375c59.209,0 107.392,-48.182 107.392,-107.375c-0,-8.415 6.82,-15.235 15.235,-15.235c8.415,0 15.235,6.82 15.235,15.235c-0,76.006 -61.84,137.845 -137.862,137.845Z" style="fill:#fff;fill-rule:nonzero;"/></g><g><path d="M2252.69,1378.61c-76.006,0 -137.845,-61.839 -137.845,-137.845c-0,-8.415 6.82,-15.235 15.235,-15.235c8.415,0 15.235,6.82 15.235,15.235c-0,59.21 48.165,107.375 107.375,107.375c59.209,0 107.391,-48.182 107.391,-107.375c0,-8.415 6.82,-15.235 15.235,-15.235c8.415,0 15.235,6.82 15.235,15.235c0,76.006 -61.839,137.845 -137.861,137.845Z" style="fill:#fff;fill-rule:nonzero;"/></g></g><g><path d="M1717.54,823.429c-0,6.074 -4.92,10.994 -10.994,10.994c-6.074,-0 -10.994,-4.92 -10.994,-10.994c0,-6.074 4.92,-10.994 10.994,-10.994c6.074,0 10.994,4.937 10.994,10.994Z" style="fill:#fff;fill-rule:nonzero;"/></g><g><path d="M1527.97,476.009c-0,6.074 -4.92,10.994 -10.994,10.994c-6.074,-0 -10.994,-4.92 -10.994,-10.994c0,-6.074 4.92,-10.994 10.994,-10.994c6.074,0 10.994,4.92 10.994,10.994Z" style="fill:#fff;fill-rule:nonzero;"/></g><g><path d="M1966.94,554.831c0,6.073 -4.92,10.993 -10.994,10.993c-6.073,0 -10.993,-4.92 -10.993,-10.993c-0,-6.074 4.92,-10.994 10.993,-10.994c6.074,0 10.994,4.92 10.994,10.994Z" style="fill:#fff;fill-rule:nonzero;"/></g><g><path d="M1821.17,254.863c0,6.074 -4.92,10.994 -10.994,10.994c-6.073,-0 -10.993,-4.92 -10.993,-10.994c-0,-6.073 4.92,-10.993 10.993,-10.993c6.074,-0 10.994,4.936 10.994,10.993Z" style="fill:#fff;fill-rule:nonzero;"/></g><g><path d="M2168.83,291.814c-0,6.074 -4.92,10.994 -10.994,10.994c-6.073,-0 -10.993,-4.92 -10.993,-10.994c-0,-6.074 4.92,-10.994 10.993,-10.994c6.074,0 10.994,4.92 10.994,10.994Z" style="fill:#fff;fill-rule:nonzero;"/></g><g><path d="M2274.67,531.809c-0,6.073 -4.92,10.993 -10.994,10.993c-6.073,0 -10.993,-4.92 -10.993,-10.993c-0,-6.074 4.92,-10.994 10.993,-10.994c6.074,0.017 10.994,4.937 10.994,10.994Z" style="fill:#fff;fill-rule:nonzero;"/></g><g><path d="M2091.97,850.761c0,6.073 -4.92,10.993 -10.994,10.993c-6.073,0 -10.993,-4.92 -10.993,-10.993c-0,-6.074 4.92,-10.994 10.993,-10.994c6.074,-0 10.994,4.92 10.994,10.994Z" style="fill:#fff;fill-rule:nonzero;"/></g><g><path d="M2386.31,812.452c0,6.074 -4.92,10.994 -10.994,10.994c-6.073,0 -10.993,-4.92 -10.993,-10.994c-0,-6.073 4.92,-10.993 10.993,-10.993c6.074,-0 10.994,4.92 10.994,10.993Z" style="fill:#fff;fill-rule:nonzero;"/></g><g><path d="M2029.44,1156.5c0,6.073 -4.92,10.993 -10.994,10.993c-6.073,0 -10.993,-4.92 -10.993,-10.993c-0,-6.074 4.92,-10.994 10.993,-10.994c6.074,-0 10.994,4.937 10.994,10.994Z" style="fill:#fff;fill-rule:nonzero;"/></g><g><path d="M2120.88,1439.24c0,6.074 -4.92,10.994 -10.993,10.994c-6.074,-0 -10.994,-4.92 -10.994,-10.994c-0,-6.074 4.92,-10.994 10.994,-10.994c6.073,0 10.993,4.92 10.993,10.994Z" style="fill:#fff;fill-rule:nonzero;"/></g><g><path d="M1722.41,1118.87c-0,6.074 -4.92,10.994 -10.994,10.994c-6.074,-0 -10.994,-4.92 -10.994,-10.994c0,-6.074 4.92,-10.994 10.994,-10.994c6.074,0.017 10.994,4.937 10.994,10.994Z" style="fill:#fff;fill-rule:nonzero;"/></g><g><path d="M1516.98,1236.51c0,6.074 -4.92,10.994 -10.994,10.994c-6.073,-0 -10.993,-4.92 -10.993,-10.994c-0,-6.074 4.92,-10.994 10.993,-10.994c6.074,0 10.994,4.92 10.994,10.994Z" style="fill:#fff;fill-rule:nonzero;"/></g></g></g></svg>