<?xml version="1.0" encoding="UTF-8" standalone="no"?><!DOCTYPE svg PUBLIC "-//W3C//DTD SVG 1.1//EN" "http://www.w3.org/Graphics/SVG/1.1/DTD/svg11.dtd"><svg width="100%" height="100%" viewBox="0 0 242 141" version="1.1" xmlns="http://www.w3.org/2000/svg" xmlns:xlink="http://www.w3.org/1999/xlink" xml:space="preserve" xmlns:serif="http://www.serif.com/" style="fill-rule:evenodd;clip-rule:evenodd;stroke-linejoin:round;stroke-miterlimit:2;"><path d="M109.688,47.442c-0,-1.662 4.246,-4.076 10.902,-4.076c6.654,-0 10.901,2.414 10.901,4.076c-0,1.663 -4.247,4.076 -10.901,4.076c-6.656,-0 -10.902,-2.413 -10.902,-4.076Zm-95.347,-2.459c25.725,-8.024 87.499,-31.272 104.36,-37.654l109.085,37.241l-107.194,46.508l-70.788,-30.712l59.768,-7.887c2.61,1.604 6.507,2.592 11.018,2.592c8.239,0 14.454,-3.28 14.454,-7.629c0,-4.348 -6.215,-7.63 -14.454,-7.63c-7.109,0 -12.699,2.443 -14.104,5.906l-69.354,9.151l-22.791,-9.886Zm165.28,83.003c-0,2.805 -2.278,5.083 -5.082,5.083l-100.217,0c-2.802,0 -5.081,-2.278 -5.081,-5.083l-0,-51.44l49.937,21.666c0.451,0.195 0.931,0.293 1.414,0.293c0.482,0 0.963,-0.098 1.413,-0.293l57.616,-24.998l-0,54.772Zm-148.647,-15.647l3.664,-21.694c0.209,-1.246 -0.258,-2.509 -1.228,-3.318c-0.604,-0.508 -0.951,-1.247 -0.951,-2.032c0,-1.457 1.187,-2.644 2.644,-2.644c1.461,-0 2.649,1.187 2.649,2.644c0,0.813 -0.359,1.393 -0.657,1.737c-0.673,0.773 -0.981,1.802 -0.839,2.818l3.106,22.489l-8.388,0Zm2.093,-36.579c-4.403,0.94 -7.715,4.856 -7.715,9.535c0,2.157 0.705,4.216 1.985,5.895l-4.071,24.111c-0.176,1.031 0.114,2.088 0.789,2.886c0.675,0.799 1.668,1.259 2.713,1.259l16.672,0c1.027,0 2.004,-0.444 2.679,-1.22c0.674,-0.773 0.981,-1.802 0.839,-2.822l-3.47,-25.133c0.892,-1.497 1.372,-3.216 1.372,-4.976c-0,-3.518 -1.882,-6.599 -4.686,-8.316l0,-13.041l21.96,9.525l-0,54.523c-0,6.723 5.467,12.19 12.188,12.19l100.217,0c6.722,0 12.189,-5.467 12.189,-12.19l-0,-57.855l52.312,-22.696c1.346,-0.585 2.195,-1.935 2.136,-3.405c-0.058,-1.466 -1.014,-2.745 -2.402,-3.218l-118.987,-40.621c-0.782,-0.268 -1.633,-0.254 -2.406,0.041c-40.738,15.425 -107.642,40.017 -113.855,40.389c-1.672,0.014 -3.111,1.192 -3.452,2.83c-0.34,1.651 0.52,3.314 2.066,3.984l30.927,13.416l-0,14.909Z" style="fill:#fff;fill-rule:nonzero;"/></svg>