<?xml version="1.0" encoding="UTF-8" standalone="no"?><!DOCTYPE svg PUBLIC "-//W3C//DTD SVG 1.1//EN" "http://www.w3.org/Graphics/SVG/1.1/DTD/svg11.dtd"><svg width="100%" height="100%" viewBox="0 0 4000 2250" version="1.1" xmlns="http://www.w3.org/2000/svg" xmlns:xlink="http://www.w3.org/1999/xlink" xml:space="preserve" xmlns:serif="http://www.serif.com/" style="fill-rule:evenodd;clip-rule:evenodd;stroke-linejoin:round;stroke-miterlimit:2;"><rect x="0" y="0" width="4000" height="2250" style="fill:#e4142c;"/><g id="Objects"><g><g><path d="M2000,875.13c86.719,-0 157.018,-70.3 157.018,-157.019l0,-78.509c0,-86.719 -70.299,-157.019 -157.018,-157.019c-86.719,0 -157.018,70.3 -157.018,157.019l-0,78.509c-0,86.719 70.299,157.019 157.018,157.019Z" style="fill:#fff;fill-rule:nonzero;"/><path d="M2139.15,929.508l-278.294,0c-80.908,0 -146.498,65.59 -146.498,146.499l-0,312.387c-0,40.455 32.795,73.25 73.25,73.25c21.439,-0 40.728,-9.213 54.123,-23.895l-0,379.478c-0,43.705 35.43,79.135 79.136,79.135l158.272,0c43.705,0 79.135,-35.43 79.135,-79.135l0,-379.478c13.396,14.682 32.684,23.895 54.123,23.895c40.455,-0 73.25,-32.795 73.25,-73.25l0,-312.387c0.001,-80.909 -65.589,-146.499 -146.497,-146.499Z" style="fill:#fff;fill-rule:nonzero;"/></g><path d="M1533.84,746.184c86.719,-0 157.018,-70.3 157.018,-157.018l0,-78.51c0,-86.719 -70.299,-157.018 -157.018,-157.018c-86.718,-0 -157.018,70.299 -157.018,157.018l-0,78.51c-0,86.718 70.3,157.018 157.018,157.018Z" style="fill:#fff;fill-rule:nonzero;"/><path d="M1675.96,1076l0,312.387c0,21.149 5.904,40.935 16.157,57.802l0,242.086c0,21.859 -8.861,41.636 -23.184,55.959c-14.314,14.323 -34.1,23.175 -55.949,23.175l-158.277,-0c-43.7,-0 -79.134,-35.425 -79.134,-79.134l0,-379.473c-6.701,7.344 -14.861,13.316 -24.038,17.453c-9.178,4.138 -19.364,6.442 -30.087,6.442c-40.455,0 -73.249,-32.794 -73.249,-73.249l0,-312.387c0,-40.455 16.397,-77.079 42.913,-103.595c26.505,-26.515 63.13,-42.912 103.585,-42.912l278.297,-0c63.668,-0 117.851,40.618 138.049,97.364c-77.837,21.802 -135.083,93.38 -135.083,178.082Z" style="fill:#fff;fill-rule:nonzero;"/><path d="M2466.16,746.184c-86.719,-0 -157.018,-70.3 -157.018,-157.018l-0,-78.51c-0,-86.719 70.299,-157.018 157.018,-157.018c86.718,-0 157.018,70.299 157.018,157.018l0,78.51c0,86.718 -70.3,157.018 -157.018,157.018Z" style="fill:#fff;fill-rule:nonzero;"/><path d="M2324.04,1076l-0,312.387c-0,21.149 -5.904,40.935 -16.157,57.802l-0,242.086c-0,21.859 8.861,41.636 23.184,55.959c14.314,14.323 34.1,23.175 55.949,23.175l158.277,-0c43.7,-0 79.134,-35.425 79.134,-79.134l-0,-379.473c6.701,7.344 14.861,13.316 24.038,17.453c9.178,4.138 19.364,6.442 30.087,6.442c40.455,0 73.249,-32.794 73.249,-73.249l-0,-312.387c-0,-40.455 -16.397,-77.079 -42.913,-103.595c-26.505,-26.515 -63.13,-42.912 -103.585,-42.912l-278.297,-0c-63.668,-0 -117.851,40.618 -138.049,97.364c77.837,21.802 135.083,93.38 135.083,178.082Z" style="fill:#fff;fill-rule:nonzero;"/></g></g></svg>