<?xml version="1.0" encoding="UTF-8" standalone="no"?><!DOCTYPE svg PUBLIC "-//W3C//DTD SVG 1.1//EN" "http://www.w3.org/Graphics/SVG/1.1/DTD/svg11.dtd"><svg width="100%" height="100%" viewBox="0 0 596 334" version="1.1" xmlns="http://www.w3.org/2000/svg" xmlns:xlink="http://www.w3.org/1999/xlink" xml:space="preserve" xmlns:serif="http://www.serif.com/" style="fill-rule:evenodd;clip-rule:evenodd;stroke-linejoin:round;stroke-miterlimit:2;"><rect x="0" y="0" width="595.833" height="333.333" style="fill:#e4142c;"/><path d="M322.022,59.155c-0,-13.224 -10.882,-24.105 -24.105,-24.105c-13.224,-0 -24.106,10.881 -24.106,24.105c0,13.224 10.882,24.105 24.106,24.105c13.223,0 24.105,-10.881 24.105,-24.105Zm-4.018,94.061l23.804,28.675c5.675,6.83 15.819,7.784 22.649,2.109c6.83,-5.675 7.784,-15.819 2.109,-22.649l-37.011,-44.645c-9.14,-11.048 -22.75,-17.426 -37.112,-17.426l-18.029,0c-16.924,0 -32.592,8.889 -41.33,23.403l-29.278,48.712c-4.57,7.583 -2.109,17.477 5.474,22.046c7.583,4.57 17.476,2.11 22.046,-5.473l14.363,-23.905l-0,112.039c-0,8.889 7.181,16.071 16.07,16.071c8.889,-0 16.07,-7.182 16.07,-16.071l-0,-64.28l8.035,-0l0,64.28c0,8.889 7.181,16.071 16.07,16.071c8.889,-0 16.07,-7.182 16.07,-16.071l0,-122.886Zm44.193,70.658c0,-2.209 1.808,-4.017 4.018,-4.017c2.21,-0 4.017,1.808 4.017,4.017l0,56.246c0,6.679 5.374,12.053 12.053,12.053c6.679,-0 12.053,-5.374 12.053,-12.053l-0,-56.246c-0,-15.517 -12.605,-28.122 -28.123,-28.122c-15.518,-0 -28.123,12.605 -28.123,28.122l0,4.018c0,6.679 5.374,12.053 12.053,12.053c6.679,-0 12.052,-5.374 12.052,-12.053l0,-4.018Z" style="fill:#fff;fill-rule:nonzero;"/></svg>