<?xml version="1.0" encoding="UTF-8" standalone="no"?><!DOCTYPE svg PUBLIC "-//W3C//DTD SVG 1.1//EN" "http://www.w3.org/Graphics/SVG/1.1/DTD/svg11.dtd"><svg width="100%" height="100%" viewBox="0 0 4000 2250" version="1.1" xmlns="http://www.w3.org/2000/svg" xmlns:xlink="http://www.w3.org/1999/xlink" xml:space="preserve" xmlns:serif="http://www.serif.com/" style="fill-rule:evenodd;clip-rule:evenodd;stroke-linejoin:round;stroke-miterlimit:2;"><rect x="0" y="0" width="4000" height="2250" style="fill:#e4142c;"/><path d="M1283.17,510.575c-112.965,-0 -204.809,91.844 -204.809,204.808l0,204.809c0,28.161 23.681,50.242 50.243,59.522c60.162,20.801 103.364,78.083 103.364,145.286c-0,67.203 -43.202,124.485 -103.364,145.286c-26.562,9.28 -50.243,31.361 -50.243,59.522l0,204.809c0,112.964 91.844,204.808 204.809,204.808l1433.66,0c112.965,0 204.809,-91.844 204.809,-204.808l-0,-204.809c-0,-28.161 -23.681,-50.242 -50.243,-59.522c-60.162,-20.801 -103.364,-78.083 -103.364,-145.286c0,-67.203 43.202,-124.485 103.364,-145.286c26.562,-9.28 50.243,-31.361 50.243,-59.522l-0,-204.809c-0,-112.964 -91.844,-204.808 -204.809,-204.808l-1433.66,-0Zm204.808,358.415l0,512.02c0,28.162 23.041,51.203 51.202,51.203l921.638,-0c28.161,-0 51.202,-23.041 51.202,-51.203l-0,-512.02c-0,-28.162 -23.041,-51.203 -51.202,-51.203l-921.638,0c-28.161,0 -51.202,23.041 -51.202,51.203Zm-102.404,-51.203c-0,-56.642 45.762,-102.404 102.404,-102.404l1024.04,0c56.642,0 102.404,45.762 102.404,102.404l0,614.426c0,56.642 -45.762,102.404 -102.404,102.404l-1024.04,-0c-56.642,-0 -102.404,-45.762 -102.404,-102.404l-0,-614.426Z" style="fill:#fff;fill-rule:nonzero;"/></svg>