<?xml version="1.0" encoding="UTF-8" standalone="no"?><!DOCTYPE svg PUBLIC "-//W3C//DTD SVG 1.1//EN" "http://www.w3.org/Graphics/SVG/1.1/DTD/svg11.dtd"><svg width="100%" height="100%" viewBox="0 0 596 334" version="1.1" xmlns="http://www.w3.org/2000/svg" xmlns:xlink="http://www.w3.org/1999/xlink" xml:space="preserve" xmlns:serif="http://www.serif.com/" style="fill-rule:evenodd;clip-rule:evenodd;stroke-linejoin:round;stroke-miterlimit:2;"><rect x="0" y="0" width="595.833" height="333.333" style="fill:#e4142c;"/><clipPath id="_clip1"><rect id="recicla.svg" x="155.122" y="29.896" width="285.589" height="285.589"/></clipPath><g clip-path="url(#_clip1)"><path d="M252.568,55.053c9.762,-15.674 26.942,-25.157 45.349,-25.157c18.407,0 35.587,9.483 45.348,25.157l21.531,34.416l15.06,-8.702c4.686,-2.733 10.543,-2.343 14.838,0.948c4.295,3.291 6.191,8.869 4.797,14.112l-13.053,48.751c-1.896,7.14 -9.259,11.379 -16.399,9.483l-48.751,-13.052c-5.243,-1.395 -9.092,-5.801 -9.817,-11.156c-0.725,-5.355 1.896,-10.654 6.582,-13.331l15.841,-9.148l-20.917,-33.412c-3.235,-5.187 -8.925,-8.367 -15.06,-8.367c-6.136,0 -11.826,3.18 -15.061,8.367l-9.761,15.618c-5.132,8.256 -15.953,10.877 -24.32,5.857c-8.534,-5.132 -11.267,-16.288 -5.968,-24.766l9.761,-15.618Zm142.126,115.351c8.366,-5.02 19.188,-2.398 24.319,5.857l13.61,21.81c5.244,8.422 8.033,18.072 8.144,28.001c0.167,29.619 -23.818,53.771 -53.436,53.771l-53.716,-0.056l0,17.85c0,5.41 -3.235,10.319 -8.255,12.382c-5.02,2.064 -10.765,0.949 -14.614,-2.9l-35.699,-35.699c-5.243,-5.243 -5.243,-13.721 0,-18.909l35.699,-35.699c3.849,-3.848 9.594,-4.964 14.614,-2.9c5.02,2.064 8.255,6.972 8.255,12.383l0,17.849l53.66,0c9.817,0 17.793,-8.032 17.738,-17.849c-0,-3.291 -0.949,-6.526 -2.678,-9.315l-13.61,-21.81c-5.299,-8.478 -2.621,-19.634 5.969,-24.766Zm-203.371,-17.291l-16.121,-9.315c-4.685,-2.734 -7.307,-7.977 -6.581,-13.332c0.725,-5.354 4.573,-9.761 9.817,-11.156l48.751,-13.052c7.139,-1.896 14.502,2.343 16.399,9.483l13.052,48.695c1.395,5.243 -0.502,10.765 -4.797,14.112c-4.295,3.347 -10.152,3.681 -14.837,0.948l-14.782,-8.534l-28.726,45.962c-1.729,2.789 -2.677,6.024 -2.677,9.315c-0.056,9.817 7.92,17.85 17.737,17.85l17.961,-0c9.873,-0 17.85,7.976 17.85,17.849c-0,9.873 -7.977,17.849 -17.85,17.849l-17.961,0c-29.618,0 -53.603,-24.096 -53.436,-53.771c0.056,-9.929 2.845,-19.578 8.144,-28.001l28.057,-44.902Z" style="fill:#fff;fill-rule:nonzero;"/></g></svg>