<?xml version="1.0" encoding="UTF-8" standalone="no"?><!DOCTYPE svg PUBLIC "-//W3C//DTD SVG 1.1//EN" "http://www.w3.org/Graphics/SVG/1.1/DTD/svg11.dtd"><svg width="100%" height="100%" viewBox="0 0 596 334" version="1.1" xmlns="http://www.w3.org/2000/svg" xmlns:xlink="http://www.w3.org/1999/xlink" xml:space="preserve" xmlns:serif="http://www.serif.com/" style="fill-rule:evenodd;clip-rule:evenodd;stroke-linejoin:round;stroke-miterlimit:2;"><rect x="0" y="0" width="595.833" height="333.333" style="fill:#e4142c;"/><path d="M421.762,181.966c8.231,-0 15.493,-6.778 15.493,-15.541c0.484,-4.358 -1.453,-8.231 -5.326,-11.62l-123.603,-108.692c-2.905,-2.42 -6.778,-3.389 -10.167,-3.389c-3.389,0 -7.262,0.485 -10.652,3.874l-124.184,108.207c-3.389,3.389 -4.841,7.262 -4.841,11.62c-0,8.714 6.778,15.541 15.492,15.541l15.493,-0l0,77.657c0,17.091 13.895,30.986 30.986,30.986l155.121,-0c17.188,-0 31.083,-13.944 30.986,-31.131l-0.339,-77.561l15.493,0l0.048,0.049Zm-139.338,-38.538c-0,-4.261 3.486,-7.747 7.746,-7.747l15.493,0c4.261,0 7.746,3.486 7.746,7.747l0,23.239l23.24,-0c4.26,-0 7.746,3.486 7.746,7.746l-0,15.493c-0,4.26 -3.486,7.746 -7.746,7.746l-23.24,0l0,23.239c0,4.261 -3.485,7.747 -7.746,7.747l-15.493,-0c-4.26,-0 -7.746,-3.486 -7.746,-7.747l-0,-23.239l-23.239,0c-4.261,0 -7.747,-3.486 -7.747,-7.746l0,-15.493c0,-4.26 3.486,-7.746 7.747,-7.746l23.239,-0l-0,-23.239Z" style="fill:#fff;fill-rule:nonzero;"/></svg>