<?xml version="1.0" encoding="UTF-8" standalone="no"?><!DOCTYPE svg PUBLIC "-//W3C//DTD SVG 1.1//EN" "http://www.w3.org/Graphics/SVG/1.1/DTD/svg11.dtd"><svg width="100%" height="100%" viewBox="0 0 153 141" version="1.1" xmlns="http://www.w3.org/2000/svg" xmlns:xlink="http://www.w3.org/1999/xlink" xml:space="preserve" xmlns:serif="http://www.serif.com/" style="fill-rule:evenodd;clip-rule:evenodd;stroke-linejoin:round;stroke-miterlimit:2;"><path d="M33.012,65.883l9.556,-35.929l8.407,0l16.822,62.302l5.974,-23.363l4.202,-3.01l15.573,-0l9.606,-35.929l8.981,0l9.599,35.929l27.619,-0c1.765,-6.596 3.007,-13.187 3.007,-19.782c0,-25.749 -19.825,-46.101 -43.857,-46.101c-12.565,0 -23.932,6.018 -32.344,14.955c-7.79,-8.937 -19.208,-14.955 -32.391,-14.955c-23.937,0 -43.766,20.352 -43.766,46.101c-0,6.595 1.195,13.186 3.011,19.782l30.001,-0Zm85.139,8.36l-4.202,-2.96l-6.595,-23.363l-6.022,23.363l-4.154,2.96l-15.624,-0l-9.555,35.975l-8.455,0l-16.771,-62.298l-5.97,23.363l-4.827,2.96l-29.381,-0c18.584,40.134 69.562,65.933 69.562,65.933c0,0 50.979,-25.799 69.562,-65.933l-27.568,-0Z" style="fill:#fff;"/></svg>